<svg version="1.1" viewBox="0.0 0.0 960.0 720.0" fill="none" stroke="none" stroke-linecap="square" stroke-miterlimit="10" xmlns:xlink="http://www.w3.org/1999/xlink" xmlns="http://www.w3.org/2000/svg"><clipPath id="p.0"><path d="m0 0l960.0 0l0 720.0l-960.0 0l0 -720.0z" clip-rule="nonzero"/></clipPath><g clip-path="url(#p.0)"><path fill="#000000" fill-opacity="0.0" d="m0 0l960.0 0l0 720.0l-960.0 0z" fill-rule="evenodd"/><path fill="#000000" fill-opacity="0.0" d="m66.52493 71.17109l0 0c0 -13.507324 10.949852 -24.45718 24.457184 -24.45718l97.82579 0l0 0c6.48645 0 12.70723 2.5767326 17.293839 7.1633453c4.586609 4.586609 7.1633453 10.807392 7.1633453 17.293835l0 97.8258c0 13.507324 -10.94986 24.457184 -24.457184 24.457184l-97.82579 0c-13.507332 0 -24.457184 -10.94986 -24.457184 -24.457184z" fill-rule="evenodd"/><path stroke="#cc0000" stroke-width="4.0" stroke-linejoin="round" stroke-linecap="butt" d="m66.52493 71.17109l0 0c0 -13.507324 10.949852 -24.45718 24.457184 -24.45718l97.82579 0l0 0c6.48645 0 12.70723 2.5767326 17.293839 7.1633453c4.586609 4.586609 7.1633453 10.807392 7.1633453 17.293835l0 97.8258c0 13.507324 -10.94986 24.457184 -24.457184 24.457184l-97.82579 0c-13.507332 0 -24.457184 -10.94986 -24.457184 -24.457184z" fill-rule="evenodd"/><path fill="#000000" fill-opacity="0.0" d="m66.52493 49.24312l146.74016 0l0 137.13387l-146.74016 0z" fill-rule="evenodd"/><path fill="#cc0000" d="m84.056145 154.24312l0 -71.09375l24.90625 0q12.9375 0 19.625008 4.953125q6.6875 4.953125 6.6875 14.53125q0 5.21875 -2.6875 9.203125q-2.671875 3.984375 -7.4687576 5.828125q5.4687576 1.375 8.625008 5.53125q3.15625 4.140625 3.15625 10.140625q0 10.265625 -6.546875 15.546875q-6.5468826 5.265625 -18.656258 5.359375l-27.640625 0zm14.65625 -30.953125l0 19.1875l12.546875 0q5.171875 0 8.078125 -2.46875q2.90625 -2.46875 2.90625 -6.8125q0 -9.765625 -10.109375 -9.90625l-13.421875 0zm0 -10.359375l10.84375 0q11.078125 -0.1875 11.078125 -8.828125q0 -4.84375 -2.8125 -6.96875q-2.796875 -2.125 -8.859375 -2.125l-10.25 0l0 17.921875zm101.35938 -17.921875l-21.765625 0l0 59.234375l-14.65625 0l0 -59.234375l-21.484375 0l0 -11.859375l57.90625 0l0 11.859375z" fill-rule="nonzero"/></g></svg>